#N canvas 604 163 924 824 12;
#X obj 384 728 dac~;
#X obj 204 326 readsf~;
#X obj 200 184 route list;
#X obj 201 143 receive fromGUI;
#X msg 198 271 open paysandu.wav \, 1;
#X obj 196 217 route /myButton /amp;
#X obj 1262 566 *~;
#X obj 416 571 *~;
#X obj 1340 523 hsl 128 15 0 1 0 0 empty empty empty -2 -8 0 10 -262144
-1 -1 12468 1;
#X obj 1376 372 route list;
#X obj 1377 331 receive fromGUI;
#X obj 1372 405 route /mySlider /amp;
#X obj 24 325 readsf~;
#X obj 20 183 route list;
#X obj 21 142 receive fromGUI;
#X msg 18 270 open paysandu.wav \, 1;
#X obj 16 216 route /myButton1 /amp;
#X obj 1343 253 hsl 128 15 10 500 0 0 empty empty empty -2 -8 0 10
-262144 -1 -1 12674 1;
#X obj 1203 474 osc~;
#X obj 375 646 *~ 5;
#X obj 1356 153 route list;
#X obj 1357 112 receive fromGUI;
#X obj 1352 186 route /mySlider1 /amp;
#X obj 273 570 *~;
#X obj 380 331 readsf~;
#X obj 376 189 route list;
#X obj 377 148 receive fromGUI;
#X msg 374 276 open atletico.wav \, 1;
#X obj 551 328 readsf~;
#X obj 547 186 route list;
#X obj 548 145 receive fromGUI;
#X msg 545 273 open atletico.wav \, 1;
#X obj 724 326 readsf~;
#X obj 720 184 route list;
#X obj 721 143 receive fromGUI;
#X msg 718 272 open fluminense.wav \, 1;
#X obj 920 325 readsf~;
#X obj 916 183 route list;
#X obj 917 142 receive fromGUI;
#X msg 914 271 open fluminense.wav \, 1;
#X obj 372 222 route /myButton2 /amp;
#X obj 543 219 route /myButton3 /amp;
#X obj 716 217 route /myButton4 /amp;
#X obj 912 216 route /myButton5 /amp;
#X connect 1 0 7 0;
#X connect 2 0 5 0;
#X connect 3 0 2 0;
#X connect 4 0 1 0;
#X connect 5 0 4 0;
#X connect 6 0 7 1;
#X connect 7 0 19 0;
#X connect 8 0 6 1;
#X connect 8 0 23 1;
#X connect 9 0 11 0;
#X connect 10 0 9 0;
#X connect 11 0 8 0;
#X connect 12 0 23 0;
#X connect 13 0 16 0;
#X connect 14 0 13 0;
#X connect 15 0 12 0;
#X connect 16 0 15 0;
#X connect 17 0 18 1;
#X connect 17 0 18 0;
#X connect 18 0 6 0;
#X connect 19 0 0 0;
#X connect 19 0 0 1;
#X connect 20 0 22 0;
#X connect 21 0 20 0;
#X connect 22 0 17 0;
#X connect 23 0 19 0;
#X connect 24 0 23 0;
#X connect 25 0 40 0;
#X connect 26 0 25 0;
#X connect 27 0 24 0;
#X connect 28 0 7 0;
#X connect 29 0 41 0;
#X connect 30 0 29 0;
#X connect 31 0 28 0;
#X connect 32 0 23 0;
#X connect 33 0 42 0;
#X connect 34 0 33 0;
#X connect 35 0 32 0;
#X connect 36 0 7 0;
#X connect 37 0 43 0;
#X connect 38 0 37 0;
#X connect 39 0 36 0;
#X connect 40 0 27 0;
#X connect 41 0 31 0;
#X connect 42 0 35 0;
#X connect 43 0 39 0;
